<svg width="231" height="24" viewBox="0 0 231 24" fill="none" xmlns="http://www.w3.org/2000/svg">
<path d="M9.112 23.224C7.46933 23.224 5.99733 22.9573 4.696 22.424C3.39467 21.8907 2.34933 21.1013 1.56 20.056C0.792 19.0107 0.386667 17.752 0.344 16.28H6.168C6.25333 17.112 6.54133 17.752 7.032 18.2C7.52267 18.6267 8.16267 18.84 8.952 18.84C9.76267 18.84 10.4027 18.6587 10.872 18.296C11.3413 17.912 11.576 17.3893 11.576 16.728C11.576 16.1733 11.384 15.7147 11 15.352C10.6373 14.9893 10.1787 14.6907 9.624 14.456C9.09067 14.2213 8.32267 13.9547 7.32 13.656C5.86933 13.208 4.68533 12.76 3.768 12.312C2.85067 11.864 2.06133 11.2027 1.4 10.328C0.738667 9.45333 0.408 8.312 0.408 6.904C0.408 4.81333 1.16533 3.18133 2.68 2.008C4.19467 0.813333 6.168 0.216 8.6 0.216C11.0747 0.216 13.0693 0.813333 14.584 2.008C16.0987 3.18133 16.9093 4.824 17.016 6.936H11.096C11.0533 6.21067 10.7867 5.64533 10.296 5.24C9.80533 4.81333 9.176 4.6 8.408 4.6C7.74667 4.6 7.21333 4.78133 6.808 5.144C6.40267 5.48533 6.2 5.98667 6.2 6.648C6.2 7.37333 6.54133 7.93867 7.224 8.344C7.90667 8.74933 8.97333 9.18667 10.424 9.656C11.8747 10.1467 13.048 10.616 13.944 11.064C14.8613 11.512 15.6507 12.1627 16.312 13.016C16.9733 13.8693 17.304 14.968 17.304 16.312C17.304 17.592 16.9733 18.7547 16.312 19.8C15.672 20.8453 14.7333 21.6773 13.496 22.296C12.2587 22.9147 10.7973 23.224 9.112 23.224ZM27.6435 18.776H34.8115V23H22.1715V0.535999H27.6435V18.776ZM44.2975 0.535999V13.976C44.2975 15.32 44.6282 16.3547 45.2895 17.08C45.9508 17.8053 46.9215 18.168 48.2015 18.168C49.4815 18.168 50.4628 17.8053 51.1455 17.08C51.8282 16.3547 52.1695 15.32 52.1695 13.976V0.535999H57.6415V13.944C57.6415 15.9493 57.2148 17.6453 56.3615 19.032C55.5082 20.4187 54.3562 21.464 52.9055 22.168C51.4762 22.872 49.8762 23.224 48.1055 23.224C46.3348 23.224 44.7455 22.8827 43.3375 22.2C41.9508 21.496 40.8522 20.4507 40.0415 19.064C39.2308 17.656 38.8255 15.9493 38.8255 13.944V0.535999H44.2975ZM88.424 0.535999V23H82.952V9.528L77.928 23H73.512L68.456 9.496V23H62.984V0.535999H69.448L75.752 16.088L81.992 0.535999H88.424ZM121.596 0.535999V23H116.124V13.752H107.612V23H102.14V0.535999H107.612V9.336H116.124V0.535999H121.596ZM132.519 4.92V9.464H139.847V13.688H132.519V18.616H140.807V23H127.047V0.535999H140.807V4.92H132.519ZM157.315 23L152.643 14.52H151.331V23H145.859V0.535999H155.043C156.814 0.535999 158.318 0.845332 159.555 1.464C160.814 2.08267 161.752 2.936 162.371 4.024C162.99 5.09067 163.299 6.28533 163.299 7.608C163.299 9.10133 162.872 10.4347 162.019 11.608C161.187 12.7813 159.95 13.6133 158.307 14.104L163.491 23H157.315ZM151.331 10.648H154.723C155.726 10.648 156.472 10.4027 156.963 9.912C157.475 9.42133 157.731 8.728 157.731 7.832C157.731 6.97867 157.475 6.30667 156.963 5.816C156.472 5.32533 155.726 5.08 154.723 5.08H151.331V10.648ZM178.858 23.224C176.746 23.224 174.805 22.7333 173.034 21.752C171.285 20.7707 169.887 19.4053 168.842 17.656C167.818 15.8853 167.306 13.9013 167.306 11.704C167.306 9.50667 167.818 7.53333 168.842 5.784C169.887 4.03467 171.285 2.66933 173.034 1.688C174.805 0.706666 176.746 0.216 178.858 0.216C180.97 0.216 182.901 0.706666 184.65 1.688C186.421 2.66933 187.807 4.03467 188.81 5.784C189.834 7.53333 190.346 9.50667 190.346 11.704C190.346 13.9013 189.834 15.8853 188.81 17.656C187.786 19.4053 186.399 20.7707 184.65 21.752C182.901 22.7333 180.97 23.224 178.858 23.224ZM178.858 18.232C180.65 18.232 182.079 17.6347 183.146 16.44C184.234 15.2453 184.778 13.6667 184.778 11.704C184.778 9.72 184.234 8.14133 183.146 6.968C182.079 5.77333 180.65 5.176 178.858 5.176C177.045 5.176 175.594 5.76267 174.506 6.936C173.439 8.10933 172.906 9.69867 172.906 11.704C172.906 13.688 173.439 15.2773 174.506 16.472C175.594 17.6453 177.045 18.232 178.858 18.232ZM200.362 4.92V9.464H207.69V13.688H200.362V18.616H208.65V23H194.89V0.535999H208.65V4.92H200.362ZM221.831 23.224C220.188 23.224 218.716 22.9573 217.415 22.424C216.113 21.8907 215.068 21.1013 214.279 20.056C213.511 19.0107 213.105 17.752 213.063 16.28H218.887C218.972 17.112 219.26 17.752 219.751 18.2C220.241 18.6267 220.881 18.84 221.671 18.84C222.481 18.84 223.121 18.6587 223.591 18.296C224.06 17.912 224.295 17.3893 224.295 16.728C224.295 16.1733 224.103 15.7147 223.719 15.352C223.356 14.9893 222.897 14.6907 222.343 14.456C221.809 14.2213 221.041 13.9547 220.039 13.656C218.588 13.208 217.404 12.76 216.487 12.312C215.569 11.864 214.78 11.2027 214.119 10.328C213.457 9.45333 213.127 8.312 213.127 6.904C213.127 4.81333 213.884 3.18133 215.399 2.008C216.913 0.813333 218.887 0.216 221.319 0.216C223.793 0.216 225.788 0.813333 227.303 2.008C228.817 3.18133 229.628 4.824 229.735 6.936H223.815C223.772 6.21067 223.505 5.64533 223.015 5.24C222.524 4.81333 221.895 4.6 221.127 4.6C220.465 4.6 219.932 4.78133 219.527 5.144C219.121 5.48533 218.919 5.98667 218.919 6.648C218.919 7.37333 219.26 7.93867 219.943 8.344C220.625 8.74933 221.692 9.18667 223.143 9.656C224.593 10.1467 225.767 10.616 226.663 11.064C227.58 11.512 228.369 12.1627 229.031 13.016C229.692 13.8693 230.023 14.968 230.023 16.312C230.023 17.592 229.692 18.7547 229.031 19.8C228.391 20.8453 227.452 21.6773 226.215 22.296C224.977 22.9147 223.516 23.224 221.831 23.224Z" fill="url(#paint0_linear_102_247)"/>
<defs>
<linearGradient id="paint0_linear_102_247" x1="3.85417" y1="4.33928" x2="171.468" y2="113.124" gradientUnits="userSpaceOnUse">
<stop stop-color="#9B51E0"/>
<stop offset="1" stop-color="#3081ED"/>
</linearGradient>
</defs>
</svg>
